<?xml version="1.0" encoding="UTF-8"?>
<svg viewBox="0 0 225.38333 288.65756" xmlns="http://www.w3.org/2000/svg" xmlns:xlink="http://www.w3.org/1999/xlink">
 <defs>
  <filter id="w">
   <feGaussianBlur stdDeviation=".9"/>
  </filter>
  <filter id="v">
   <feGaussianBlur stdDeviation="1.2375"/>
  </filter>
  <filter id="h">
   <feGaussianBlur stdDeviation="4.28145"/>
  </filter>
  <filter id="g">
   <feGaussianBlur stdDeviation="2.35878"/>
  </filter>
  <filter id="f">
   <feGaussianBlur stdDeviation="1.90925"/>
  </filter>
  <linearGradient id="b">
   <stop stop-opacity="0" offset="0"/>
   <stop stop-opacity=".15686" offset=".5"/>
   <stop stop-opacity="0" offset="1"/>
  </linearGradient>
  <linearGradient id="a">
   <stop stop-color="#969696" offset="0"/>
   <stop stop-color="#ededed" offset="1"/>
  </linearGradient>
  <linearGradient id="u" x1="267.12" x2="267.12" y1="976" y2="911.99" gradientUnits="userSpaceOnUse">
   <stop stop-color="#d2b200" offset="0"/>
   <stop stop-color="#ffc300" offset=".5"/>
   <stop stop-color="#ffed00" offset=".75"/>
   <stop stop-color="#fd0" offset="1"/>
  </linearGradient>
  <linearGradient id="q" x1="708.08" x2="707.67" y1="172.28" y2="122.22" gradientTransform="matrix(1.0567 0 0 1.3011 -160.8 752.69)" gradientUnits="userSpaceOnUse">
   <stop stop-color="#bf6663" offset="0"/>
   <stop stop-color="#ff8884" offset="1"/>
  </linearGradient>
  <linearGradient id="o" x1="50.804" x2="60.266" y1="269.75" y2="193.19" gradientTransform="matrix(1.6588 0 0 .82888 -134.16 752.35)" gradientUnits="userSpaceOnUse">
   <stop stop-color="#a27d54" offset="0"/>
   <stop stop-color="#f5bd7f" offset="1"/>
  </linearGradient>
  <linearGradient id="e">
   <stop stop-color="#fff" offset="0"/>
   <stop stop-color="#fff" stop-opacity="0" offset="1"/>
  </linearGradient>
  <linearGradient id="t" x2="0" y1="917.99" y2="920.92" gradientUnits="userSpaceOnUse" xlink:href="#b"/>
  <linearGradient id="s" x2="0" y1="961.61" y2="964.54" gradientUnits="userSpaceOnUse" xlink:href="#b"/>
  <linearGradient id="r" x2="0" y1="938.09" y2="941.03" gradientUnits="userSpaceOnUse" xlink:href="#b"/>
  <linearGradient id="p" x2="0" y1="975.96" y2="911.27" gradientUnits="userSpaceOnUse" xlink:href="#a"/>
  <linearGradient id="n" x1="1327.1" x2="1351.5" y1="80.99" y2="62.198" gradientTransform="matrix(.52371 0 0 2.5963 -139.3 753.75)" gradientUnits="userSpaceOnUse" xlink:href="#a"/>
  <linearGradient id="m" x1="1327.1" x2="1351.5" y1="80.99" y2="62.198" gradientTransform="matrix(.52371 0 0 2.5963 -145.17 753.75)" gradientUnits="userSpaceOnUse" xlink:href="#a"/>
  <linearGradient id="l" x1="1327.1" x2="1351.5" y1="80.99" y2="62.198" gradientTransform="matrix(.52371 0 0 2.5963 -151.03 753.75)" gradientUnits="userSpaceOnUse" xlink:href="#a"/>
  <linearGradient id="k" x1="1327.1" x2="1351.5" y1="80.99" y2="62.198" gradientTransform="matrix(.52371 0 0 2.5963 -174.48 753.75)" gradientUnits="userSpaceOnUse" xlink:href="#a"/>
  <linearGradient id="j" x1="1327.1" x2="1351.5" y1="80.99" y2="62.198" gradientTransform="matrix(.52371 0 0 2.5963 -180.34 753.75)" gradientUnits="userSpaceOnUse" xlink:href="#a"/>
  <linearGradient id="i" x1="1327.1" x2="1351.5" y1="80.99" y2="62.198" gradientTransform="matrix(.52371 0 0 2.5963 -186.21 753.75)" gradientUnits="userSpaceOnUse" xlink:href="#a"/>
  <linearGradient id="d" x1="-143.97" x2="-85.233" y1="728.21" y2="956.23" gradientUnits="userSpaceOnUse" xlink:href="#e"/>
  <linearGradient id="c" x1="306.75" x2="284.61" y1="798.16" y2="686.35" gradientUnits="userSpaceOnUse" xlink:href="#e"/>
 </defs>
 <g transform="translate(.5 -772.26)" stroke="#000">
  <path d="m4.91 778.45h156l60 60v219h-216z" filter="url(#v)" stroke-linecap="round" stroke-linejoin="round"/>
  <path d="m0 773.36h156l60 60v219h-216z" fill="#fff" stroke-linecap="round" stroke-linejoin="round"/>
  <path transform="matrix(1 0 0 1.0391 0 -32.706)" d="m156 837.36c24.885-12.214 42.576-6.4406 60 0l-60-60c8.3331 22.778 14.191 44.73 0 60z" filter="url(#w)"/>
  <path d="m156 833.36c24.885-12.214 42.576-6.4406 60 0l-60-60c8.3331 22.778 14.191 44.73 0 60z" fill="#fff"/>
 </g>
 <g transform="translate(.5 -772.26)">
  <path d="m25 852.36h19.136v19.136h-19.136z" fill="none" opacity=".82895" stroke="#1e1e1e" stroke-linecap="round" stroke-linejoin="round" stroke-width="3"/>
  <path d="m25 893.23h19.136v19.136h-19.136z" fill="none" opacity=".82895" stroke="#1e1e1e" stroke-linecap="round" stroke-linejoin="round" stroke-width="3"/>
  <path d="m25 932.36h19.136v19.136h-19.136z" fill="none" opacity=".82895" stroke="#1e1e1e" stroke-linecap="round" stroke-linejoin="round" stroke-width="3"/>
  <path d="m25 972.36h19.136v19.136h-19.136z" fill="none" opacity=".82895" stroke="#1e1e1e" stroke-linecap="round" stroke-linejoin="round" stroke-width="3"/>
  <path d="m25 1012.4h19.136v19.136h-19.136z" fill="none" opacity=".82895" stroke="#1e1e1e" stroke-linecap="round" stroke-linejoin="round" stroke-width="3"/>
  <path d="m50 872.36h141" fill="none" stroke="#1e1e1e" stroke-width="3"/>
  <path d="m50 912.36h141" fill="none" stroke="#1e1e1e" stroke-width="3"/>
  <path d="m50 952.36h141" fill="none" stroke="#1e1e1e" stroke-width="3"/>
  <path d="m50 992.36h141" fill="none" stroke="#1e1e1e" stroke-width="3"/>
  <path d="m50 1032.4h141" fill="none" stroke="#1e1e1e" stroke-width="3"/>
  <g transform="matrix(.21213 -.21213 .21213 .21213 -110.79 745.41)">
   <path d="m24.236 912.18 478.12-0.73443s11.753-0.62382 11.753 33.472c0 31.158-11.019 32.627-11.019 32.627h-481.24s-7.9347-2.6725-6.8925-3.3349 2.4319 0.68532 3.8216-1.5562 2.7794-5.5019 3.8216-10.239 1.6073-14.587 1.6073-22.738-0.42731-10.536-1.263-14.982-1.95-7.3194-3.0642-9.1734-0.75968-0.6694-1.5954-1.0411 5.9515-2.2996 5.9515-2.2996z" fill="url(#u)" fill-rule="evenodd" stroke="#000" stroke-linejoin="round" stroke-width=".3125"/>
   <path d="m18.414 919.71 491.56-0.25967" fill="none" stroke="url(#t)" stroke-width="2.5"/>
   <path d="m18.674 962.82 494.28 0.25967" fill="none" stroke="url(#s)" stroke-width="2.5"/>
   <path d="m22.333 939.69 492.6-0.12982" fill="none" stroke="url(#r)" stroke-width="2.5"/>
   <path d="m560.41 911.44 41.878 7e-3s11.753 1.5795 11.753 33.472c0 32.627-11.019 32.627-11.019 32.627h-42.597s11.117-1.6322 11.117-34.233-11.133-31.873-11.133-31.873z" fill="url(#q)" fill-rule="evenodd"/>
   <path d="m501.16 911.44 61.043 7e-3s11.753 1.5795 11.753 33.472c0 32.627-11.019 32.627-11.019 32.627h-61.692s11.117-1.6322 11.117-34.233-11.203-31.873-11.203-31.873z" fill="url(#p)" fill-rule="evenodd" stroke="#000" stroke-width=".3125"/>
   <path d="m24.016 912.22-122.19 32.682 120.08 32.682s0.34956-2.6857 1.6722-5.3734c1.027-2.0871 5.6128-6.0398 5.5094-8.7357-0.10105-2.6355-5.4612-6.1603-5.4612-10.369 0-4.8508 9.2673-6.8588 9.2673-13 0-5.0422-8.0142-8.2628-8.0142-11.542 0-4.5246 4.7986-6.5594 4.9203-8.719 0.11912-2.1136-6.1047-3.8224-6.4398-5.0731-0.23673-0.88346 0.65756-2.5519 0.65756-2.5519z" fill="url(#o)" fill-rule="evenodd" stroke="#000" stroke-linejoin="round" stroke-width=".3125"/>
   <path d="m-72.885 938.48-24.055 6.4291 23.621 6.4291s2.187-0.32109 2.187-6.7341-1.7536-6.1241-1.7536-6.1241z" fill-rule="evenodd" stroke="#000" stroke-width=".3125"/>
   <path d="m554.23 911.64 1.572 6e-3s11.688 1.5707 11.688 33.286c0 32.446-10.958 32.446-10.958 32.446h-2.2176s11.443 0.0553 11.443-32.364-11.528-33.374-11.528-33.374z" fill="url(#n)" fill-rule="evenodd"/>
   <path d="m548.36 911.64 1.572 6e-3s11.688 1.5707 11.688 33.286c0 32.446-10.958 32.446-10.958 32.446h-2.2176s11.443 0.0553 11.443-32.364-11.528-33.374-11.528-33.374z" fill="url(#m)" fill-rule="evenodd"/>
   <path d="m542.5 911.64 1.572 6e-3s11.688 1.5707 11.688 33.286c0 32.446-10.958 32.446-10.958 32.446h-2.2176s11.443 0.0553 11.443-32.364-11.528-33.374-11.528-33.374z" fill="url(#l)" fill-rule="evenodd"/>
   <path d="m519.05 911.64 1.572 6e-3s11.688 1.5707 11.688 33.286c0 32.446-10.958 32.446-10.958 32.446h-2.2176s11.443 0.0553 11.443-32.364-11.528-33.374-11.528-33.374z" fill="url(#k)" fill-rule="evenodd"/>
   <path d="m513.19 911.64 1.572 6e-3s11.688 1.5707 11.688 33.286c0 32.446-10.958 32.446-10.958 32.446h-2.2176s11.443 0.0553 11.443-32.364-11.528-33.374-11.528-33.374z" fill="url(#j)" fill-rule="evenodd"/>
   <path d="m507.32 911.64 1.572 6e-3s11.688 1.5707 11.688 33.286c0 32.446-10.958 32.446-10.958 32.446h-2.2176s11.443 0.0553 11.443-32.364-11.528-33.374-11.528-33.374z" fill="url(#i)" fill-rule="evenodd"/>
   <path d="m524.69 911.43 15.161 0.0829s11.713 1.574 11.713 33.357c0 32.514-10.981 32.514-10.981 32.514l-15.884 0.0764s11.156-1.703 11.156-34.191-11.164-31.839-11.164-31.839z" fill-opacity=".87006" fill-rule="evenodd" stroke="#000" stroke-width=".3125"/>
  </g>
  <g transform="matrix(.045 0 0 .045 40.808 821.16)">
   <path transform="translate(-433.5 261.35)" d="m520.88 444.59c-15.436 0-30.946 5.9771-42.719 17.75l-170.09 170.12-66.219-66.219c-23.536-23.536-61.871-23.536-85.406 0s-23.536 61.871 0 85.406l106.06 106.06c3.8202 3.8202 8.048 6.9793 12.5 9.5625v0.0312c0.10958 0.0741 0.2338 0.11419 0.34375 0.1875 0.12917 0.0738 0.24545 0.17723 0.375 0.25l0.0312-0.0312c23.453 15.375 55.156 12.687 75.688-7.8438l212.13-212.12c23.536-23.536 23.536-61.871 0-85.406-11.765-11.765-27.251-17.75-42.688-17.75z" fill="#4d4d4d"/>
   <path d="m122.72 731.04c-19.587-19.587-51.124-19.587-70.711 0l-177.46 177.46-73.561-73.561c-19.587-19.587-51.124-19.587-70.711 0s-19.587 51.124 0 70.711l106.07 106.07c3.342 3.3421 7.041 6.107 10.96 8.3086 19.466 13.166 46.023 11.12 63.286-6.143l212.13-212.13c19.587-19.587 19.587-51.124 0-70.711z" fill="#008000"/>
   <path d="m87.375 724.44c-10.71 0-21.404 4.0603-29.656 12.312l-174.5 174.53c-10.156 6.4646-8.7534 1.6544-17.312-1e-4l-70.625-70.625c-16.504-16.504-42.778-16.504-59.281 0-10.324 10.324-14.173 24.468-11.594 37.625 0.20474 1.0052 0.79624 1.9266 1.625 2.5312 38.471 28.505 85.738 45.344 136.91 45.344 115.01 0 210.46-84.955 229.78-196.75 0.40738-2.3298-1.5742-4.7831-3.9375-4.875 0.0147 5e-4 -0.46087-0.0937-1.4062-0.0937z" fill="url(#d)" filter="url(#h)" opacity=".85366"/>
   <path transform="translate(-433.5 261.35)" d="m329.53 684.59c-33.218 0-64.775 5.4841-93.344 15.25a4.4138 4.4138 0 0 0 -1.6875 7.3125l39.281 39.281c2.9651 2.9651 6.2549 5.4116 9.75 7.375l2.1562-3.8438 2.125-3.875 1.375 0.9375-2.7812 3.375-0.0312 0.0312-2.4375 3.625c17.281 11.688 40.83 9.9196 56.219-5.4688l50.562-50.562a4.4138 4.4138 0 0 0 -2.25 -7.4375c-18.823-3.8334-38.531-6-58.938-6z" fill="url(#c)" filter="url(#g)" opacity=".58537"/>
   <path d="m87.375 708.88c-14.671 0-29.415 5.6739-40.625 16.875h-0.0312l-170.06 170.12 2.0312 2.0312 169.88-169.94 0.1875-0.1875a2.8636 2.8636 0 0 0 0.0312 0c10.664-10.655 24.661-16.031 38.594-16.031 13.94 0 27.934 5.372 38.594 16.031 21.309 21.309 21.309 55.91 0 77.219l-212.12 212.12c-18.598 18.598-47.215 20.955-68.406 7.0625l-0.0625 0.094-0.0625-0.062c-9e-3 -0.01-0.0235 0.01-0.0312 0-6e-3 0 6e-3 -0.026 0-0.031a2.8636 2.8636 0 0 0 -0.125 -0.094c-0.0394-0.029-0.0457-0.02-0.0625-0.031a2.8636 2.8636 0 0 0 -0.0312 -0.031c-0.0205-0.014-0.0481-0.053-0.0625-0.062a2.8636 2.8636 0 0 0 -0.125 -0.062c-8e-3 -0.01-0.022 0.01-0.0312 0s-0.0217-0.026-0.0312-0.031c-0.11073-0.063-0.26837-0.1191-0.4375-0.1875l0.0312-0.062c-4.0583-2.3547-7.8773-5.2211-11.312-8.6562l-106.06-106.07c-21.309-21.309-21.309-55.91 0-77.219s55.91-21.309 77.219 0l66.219 66.219 2.0312-2.0312-66.219-66.219c-22.407-22.407-58.874-22.407-81.281 0s-22.407 58.874 0 81.281l106.06 106.06c3.6265 3.6265 7.6553 6.6273 11.906 9.0938l0.59375-1 0.0312-0.062 0.75-1.3125c0.1504 0.082 0.30038 0.1813 0.59375 0.3437l-1.5 2.3125c0.0525 0.034-0.0333-0.012 0.0312 0.031a2.9391 2.9391 0 0 1 0.40625 0.1875c22.306 14.623 52.448 12.115 72-7.4375l212.13-212.12c22.407-22.407 22.407-58.874 0-81.281-11.206-11.206-25.948-16.875-40.625-16.875zm-244.72 320.31c0.0689 0.031 0.16596 0.085 0.1875 0.094-0.0625-0.021-0.1875-0.083-0.1875-0.094z" fill="#fff" filter="url(#f)" opacity=".78862"/>
  </g>
  <g transform="matrix(.045 0 0 .045 37.808 863.16)">
   <path transform="translate(-433.5 261.35)" d="m520.88 444.59c-15.436 0-30.946 5.9771-42.719 17.75l-170.09 170.12-66.219-66.219c-23.536-23.536-61.871-23.536-85.406 0s-23.536 61.871 0 85.406l106.06 106.06c3.8202 3.8202 8.048 6.9793 12.5 9.5625v0.0312c0.10958 0.0741 0.2338 0.11419 0.34375 0.1875 0.12917 0.0738 0.24545 0.17723 0.375 0.25l0.0312-0.0312c23.453 15.375 55.156 12.687 75.688-7.8438l212.13-212.12c23.536-23.536 23.536-61.871 0-85.406-11.765-11.765-27.251-17.75-42.688-17.75z" fill="#4d4d4d"/>
   <path d="m122.72 731.04c-19.587-19.587-51.124-19.587-70.711 0l-177.46 177.46-73.561-73.561c-19.587-19.587-51.124-19.587-70.711 0s-19.587 51.124 0 70.711l106.07 106.07c3.342 3.3421 7.041 6.107 10.96 8.3086 19.466 13.166 46.023 11.12 63.286-6.143l212.13-212.13c19.587-19.587 19.587-51.124 0-70.711z" fill="#008000"/>
   <path d="m87.375 724.44c-10.71 0-21.404 4.0603-29.656 12.312l-174.5 174.53c-10.156 6.4646-8.7534 1.6544-17.312-1e-4l-70.625-70.625c-16.504-16.504-42.778-16.504-59.281 0-10.324 10.324-14.173 24.468-11.594 37.625 0.20474 1.0052 0.79624 1.9266 1.625 2.5312 38.471 28.505 85.738 45.344 136.91 45.344 115.01 0 210.46-84.955 229.78-196.75 0.40738-2.3298-1.5742-4.7831-3.9375-4.875 0.0147 5e-4 -0.46087-0.0937-1.4062-0.0937z" fill="url(#d)" filter="url(#h)" opacity=".85366"/>
   <path transform="translate(-433.5 261.35)" d="m329.53 684.59c-33.218 0-64.775 5.4841-93.344 15.25a4.4138 4.4138 0 0 0 -1.6875 7.3125l39.281 39.281c2.9651 2.9651 6.2549 5.4116 9.75 7.375l2.1562-3.8438 2.125-3.875 1.375 0.9375-2.7812 3.375-0.0312 0.0312-2.4375 3.625c17.281 11.688 40.83 9.9196 56.219-5.4688l50.562-50.562a4.4138 4.4138 0 0 0 -2.25 -7.4375c-18.823-3.8334-38.531-6-58.938-6z" fill="url(#c)" filter="url(#g)" opacity=".58537"/>
   <path d="m87.375 708.88c-14.671 0-29.415 5.6739-40.625 16.875h-0.0312l-170.06 170.12 2.0312 2.0312 169.88-169.94 0.1875-0.1875a2.8636 2.8636 0 0 0 0.0312 0c10.664-10.655 24.661-16.031 38.594-16.031 13.94 0 27.934 5.372 38.594 16.031 21.309 21.309 21.309 55.91 0 77.219l-212.12 212.12c-18.598 18.598-47.215 20.955-68.406 7.0625l-0.0625 0.094-0.0625-0.062c-9e-3 -0.01-0.0235 0.01-0.0312 0-6e-3 0 6e-3 -0.026 0-0.031a2.8636 2.8636 0 0 0 -0.125 -0.094c-0.0394-0.029-0.0457-0.02-0.0625-0.031a2.8636 2.8636 0 0 0 -0.0312 -0.031c-0.0205-0.014-0.0481-0.053-0.0625-0.062a2.8636 2.8636 0 0 0 -0.125 -0.062c-8e-3 -0.01-0.022 0.01-0.0312 0s-0.0217-0.026-0.0312-0.031c-0.11073-0.063-0.26837-0.1191-0.4375-0.1875l0.0312-0.062c-4.0583-2.3547-7.8773-5.2211-11.312-8.6562l-106.06-106.07c-21.309-21.309-21.309-55.91 0-77.219s55.91-21.309 77.219 0l66.219 66.219 2.0312-2.0312-66.219-66.219c-22.407-22.407-58.874-22.407-81.281 0s-22.407 58.874 0 81.281l106.06 106.06c3.6265 3.6265 7.6553 6.6273 11.906 9.0938l0.59375-1 0.0312-0.062 0.75-1.3125c0.1504 0.082 0.30038 0.1813 0.59375 0.3437l-1.5 2.3125c0.0525 0.034-0.0333-0.012 0.0312 0.031a2.9391 2.9391 0 0 1 0.40625 0.1875c22.306 14.623 52.448 12.115 72-7.4375l212.13-212.12c22.407-22.407 22.407-58.874 0-81.281-11.206-11.206-25.948-16.875-40.625-16.875zm-244.72 320.31c0.0689 0.031 0.16596 0.085 0.1875 0.094-0.0625-0.021-0.1875-0.083-0.1875-0.094z" fill="#fff" filter="url(#f)" opacity=".78862"/>
  </g>
 </g>
</svg>
