<?xml version="1.0" encoding="UTF-8" standalone="no"?>
<svg
   version="1.0"
   width="173.55795pt"
   height="174.53119pt"
   viewBox="0 0 173.55796 174.53111"
   preserveAspectRatio="xMidYMid"
   id="svg56"
   sodipodi:docname="sdl_logo_old_plain.svg"
   inkscape:export-filename="..\Documents\favicon.svg"
   inkscape:export-xdpi="96"
   inkscape:export-ydpi="96"
   inkscape:version="1.2.2 (732a01da63, 2022-12-09)"
   xmlns:inkscape="http://www.inkscape.org/namespaces/inkscape"
   xmlns:sodipodi="http://sodipodi.sourceforge.net/DTD/sodipodi-0.dtd"
   xmlns="http://www.w3.org/2000/svg"
   xmlns:svg="http://www.w3.org/2000/svg">
  <defs
     id="defs60">
    <inkscape:path-effect
       effect="fillet_chamfer"
       id="path-effect347"
       is_visible="true"
       lpeversion="1"
       nodesatellites_param="F,0,0,1,0,12,0,1 @ F,0,0,1,0,12,0,1 @ F,0,0,1,0,12,0,1 @ F,0,0,1,0,12,0,1"
       unit="px"
       method="auto"
       mode="F"
       radius="16"
       chamfer_steps="1"
       flexible="false"
       use_knot_distance="true"
       apply_no_radius="true"
       apply_with_radius="true"
       only_selected="false"
       hide_knots="false" />
  </defs>
  <sodipodi:namedview
     id="namedview58"
     pagecolor="#ffffff"
     bordercolor="#000000"
     borderopacity="0.25"
     inkscape:showpageshadow="2"
     inkscape:pageopacity="0.0"
     inkscape:pagecheckerboard="0"
     inkscape:deskcolor="#d1d1d1"
     inkscape:document-units="pt"
     showgrid="false"
     inkscape:zoom="0.81738281"
     inkscape:cx="776.86977"
     inkscape:cy="20.798088"
     inkscape:window-width="1920"
     inkscape:window-height="1017"
     inkscape:window-x="-8"
     inkscape:window-y="-8"
     inkscape:window-maximized="1"
     inkscape:current-layer="svg56" />
  <path
     style="fill:#1a1a1a;stroke-width:0.75"
     id="rect243"
     width="173.55795"
     height="174.53119"
     x="-4.7384319e-07"
     y="-1.1410745e-07"
     inkscape:path-effect="#path-effect347"
     d="m 12,-1.1410745e-7 149.55795,0 A 12,12 45 0 1 173.55795,12 v 150.53119 a 12,12 135 0 1 -12,12 H 12 a 12,12 45 0 1 -12.00000047384319,-12 V 12 A 12,12 135 0 1 12,-1.1410745e-7 Z"
     sodipodi:type="rect" />
  <g
     transform="matrix(0.07546795,0,0,-0.07546795,12.601743,160.2622)"
     fill="#000000"
     stroke="none"
     id="g54"
     style="fill:#ffffff">
    <path
       d="m 1258,1808 c -9,-7 -34,-48 -57,-90 -23,-43 -49,-91 -59,-107 -9,-16 -14,-32 -12,-34 6,-6 240,-37 274,-37 30,0 164,216 149,239 -7,11 -42,19 -114,28 -136,15 -162,15 -181,1 z"
       id="path2"
       style="fill:#ffffff" />
    <path
       d="m 725,1728 c -81,-28 -86,-35 -29,-43 27,-3 68,-10 91,-15 74,-17 129,-12 183,17 27,15 48,29 45,31 -6,6 -173,31 -205,31 -14,0 -52,-9 -85,-21 z"
       id="path4"
       style="fill:#ffffff" />
    <path
       d="m 1568,1733 c -33,-37 -118,-193 -117,-215 0,-31 71,-221 84,-225 13,-4 125,193 125,220 -1,36 -56,231 -67,234 -5,2 -17,-4 -25,-14 z"
       id="path6"
       style="fill:#ffffff" />
    <path
       d="m 1017,1693 c -26,-14 -44,-30 -40,-34 5,-4 40,-12 78,-18 68,-9 71,-9 93,15 29,33 28,54 -2,54 -13,0 -36,2 -52,5 -20,4 -44,-3 -77,-22 z"
       id="path8"
       style="fill:#ffffff" />
    <path
       d="m 512,1658 c -49,-18 -80,-34 -74,-40 5,-5 58,-17 118,-27 l 109,-18 87,31 c 48,17 85,33 82,36 -5,4 -74,18 -209,43 -20,3 -59,-5 -113,-25 z"
       id="path10"
       style="fill:#ffffff" />
    <path
       d="m 822,1618 c -51,-17 -89,-35 -85,-39 5,-4 46,-13 93,-19 47,-6 105,-16 130,-22 41,-10 50,-8 96,15 30,15 54,35 57,47 3,11 2,20 -1,20 -12,1 -146,20 -172,25 -14,3 -66,-9 -118,-27 z"
       id="path12"
       style="fill:#ffffff" />
    <path
       d="m 283,1573 c -144,-48 -140,-54 39,-74 l 115,-13 82,33 c 78,32 103,47 78,48 -13,0 -178,31 -200,37 -6,2 -58,-12 -114,-31 z"
       id="path14"
       style="fill:#ffffff" />
    <path
       d="m 600,1535 c -47,-19 -89,-36 -95,-38 -26,-11 15,-21 142,-37 l 138,-17 88,35 c 49,19 85,38 80,42 -4,4 -57,15 -118,24 -60,9 -119,18 -130,21 -11,2 -58,-11 -105,-30 z"
       id="path16"
       style="fill:#ffffff" />
    <path
       d="m 1089,1538 c -31,-25 -149,-210 -149,-234 0,-8 6,-17 13,-19 18,-7 185,-36 239,-42 45,-5 47,-4 73,33 55,81 125,199 125,211 0,19 -33,29 -140,43 -52,7 -106,14 -120,17 -14,2 -32,-2 -41,-9 z"
       id="path18"
       style="fill:#ffffff" />
    <path
       d="m 145,1363 c 7,-149 13,-211 23,-217 15,-9 243,-38 257,-32 12,4 14,30 9,153 -3,81 -10,157 -16,169 -8,17 -27,23 -121,37 -62,9 -123,17 -135,17 h -23 z"
       id="path20"
       style="fill:#ffffff" />
    <path
       d="m 1383,1438 c -11,-18 -42,-71 -68,-117 l -49,-85 40,-115 c 32,-91 44,-116 59,-116 24,0 145,196 145,234 -1,44 -73,225 -91,229 -10,2 -24,-10 -36,-30 z"
       id="path22"
       style="fill:#ffffff" />
    <path
       d="m 468,1440 c -9,-27 8,-308 20,-322 8,-10 56,-21 143,-33 112,-16 132,-16 140,-4 11,15 2,319 -9,331 -8,7 -217,38 -262,38 -15,0 -30,-4 -32,-10 z"
       id="path24"
       style="fill:#ffffff" />
    <path
       d="m 1607,1341 c -31,-55 -57,-110 -57,-122 0,-40 61,-219 75,-219 13,0 39,40 94,146 l 32,62 -30,113 c -18,70 -34,115 -43,117 -8,1 -36,-37 -71,-97 z"
       id="path26"
       style="fill:#ffffff" />
    <path
       d="m 887,1219 c -54,-72 -127,-197 -127,-217 0,-11 8,-23 18,-26 48,-14 247,-47 270,-44 21,2 39,25 99,123 40,66 73,122 73,125 0,3 -4,11 -9,18 -7,12 -44,19 -257,49 -38,5 -43,3 -67,-28 z"
       id="path28"
       style="fill:#ffffff" />
    <path
       d="m 1447,1060 c -37,-62 -67,-120 -67,-129 0,-10 9,-40 19,-67 10,-27 27,-70 36,-96 9,-27 22,-48 28,-48 19,0 127,203 126,236 -1,41 -52,207 -65,211 -6,2 -41,-46 -77,-107 z"
       id="path30"
       style="fill:#ffffff" />
    <path
       d="m 1223,1133 c -47,-67 -133,-223 -133,-241 0,-21 76,-221 89,-235 18,-18 41,11 104,133 l 68,129 -42,108 c -53,135 -60,144 -86,106 z"
       id="path32"
       style="fill:#ffffff" />
    <path
       d="m 1733,1148 c -6,-7 -32,-55 -58,-106 l -46,-92 28,-103 c 18,-64 33,-102 42,-102 17,0 111,182 111,215 0,37 -45,193 -57,197 -5,2 -15,-2 -20,-9 z"
       id="path34"
       style="fill:#ffffff" />
    <path
       d="m 164,1086 c -4,-10 -4,-49 0,-89 3,-40 9,-105 12,-145 4,-40 11,-75 15,-78 13,-8 211,-44 242,-44 h 28 l -6,118 c -7,145 -14,200 -24,207 -5,2 -55,12 -112,20 -57,9 -113,18 -126,21 -16,4 -25,1 -29,-10 z"
       id="path36"
       style="fill:#ffffff" />
    <path
       d="m 493,1024 c -12,-23 4,-293 17,-309 12,-15 252,-60 274,-52 11,5 16,19 16,49 v 43 l 17,-33 c 20,-42 46,-58 103,-67 25,-3 77,-13 117,-21 90,-18 100,-18 106,1 7,15 -76,223 -96,241 -14,13 -277,67 -304,62 -14,-2 -19,5 -21,33 l -3,36 -67,11 c -147,26 -149,26 -159,6 z"
       id="path38"
       style="fill:#ffffff" />
    <path
       d="m 1541,762 c -34,-60 -61,-115 -61,-123 1,-25 56,-170 66,-171 10,-2 111,175 121,211 7,26 -42,191 -57,191 -4,0 -36,-49 -69,-108 z"
       id="path40"
       style="fill:#ffffff" />
    <path
       d="m 1307,778 c -24,-46 -54,-102 -66,-125 l -21,-42 39,-98 c 21,-53 42,-98 47,-100 12,-4 124,210 126,239 2,23 -56,185 -72,201 -4,5 -28,-29 -53,-75 z"
       id="path42"
       style="fill:#ffffff" />
    <path
       d="m 184,697 c -3,-8 1,-78 8,-157 l 13,-144 115,-27 c 154,-37 160,-37 160,4 -1,75 -20,271 -27,278 -6,6 -239,59 -260,59 -2,0 -6,-6 -9,-13 z"
       id="path44"
       style="fill:#ffffff" />
    <path
       d="m 512,633 c -8,-18 3,-291 12,-301 3,-3 67,-19 141,-37 117,-28 137,-31 142,-18 9,23 -7,307 -17,317 -10,10 -128,36 -222,50 -39,6 -48,4 -56,-11 z"
       id="path46"
       style="fill:#ffffff" />
    <path
       d="m 881,618 c 0,-7 19,-56 43,-108 l 42,-95 130,-27 c 154,-32 154,-32 154,-14 0,20 -69,178 -84,195 -13,12 -128,39 -238,55 -37,6 -48,4 -47,-6 z"
       id="path48"
       style="fill:#ffffff" />
    <path
       d="m 1387,466 c -31,-57 -57,-112 -57,-123 0,-28 62,-174 73,-170 13,4 116,198 117,219 0,22 -61,178 -70,178 -4,0 -32,-47 -63,-104 z"
       id="path50"
       style="fill:#ffffff" />
    <path
       d="m 990,366 c 0,-8 16,-50 36,-94 27,-60 43,-83 63,-91 54,-22 253,-63 262,-54 11,11 -62,182 -82,193 -15,8 -244,60 -266,60 -7,0 -13,-6 -13,-14 z"
       id="path52"
       style="fill:#ffffff" />
  </g>
</svg>
