<?xml version="1.0" encoding="UTF-8" standalone="no"?>
<svg
   version="1.0"
   width="937.63684pt"
   height="169.26489pt"
   viewBox="0 0 937.63686 169.26489"
   preserveAspectRatio="xMidYMid"
   id="svg56"
   sodipodi:docname="sdl_logo_old_plain.svg"
   inkscape:export-filename="..\Documents\sdl_logo_old_plain_black.svg"
   inkscape:export-xdpi="96"
   inkscape:export-ydpi="96"
   xmlns:inkscape="http://www.inkscape.org/namespaces/inkscape"
   xmlns:sodipodi="http://sodipodi.sourceforge.net/DTD/sodipodi-0.dtd"
   xmlns="http://www.w3.org/2000/svg"
   xmlns:svg="http://www.w3.org/2000/svg">
  <defs
     id="defs60" />
  <sodipodi:namedview
     id="namedview58"
     pagecolor="#ffffff"
     bordercolor="#000000"
     borderopacity="0.25"
     inkscape:showpageshadow="2"
     inkscape:pageopacity="0.0"
     inkscape:pagecheckerboard="0"
     inkscape:deskcolor="#d1d1d1"
     inkscape:document-units="pt"
     showgrid="false" />
  <g
     transform="matrix(0.1,0,0,-0.1,-13.9,181.83782)"
     fill="#000000"
     stroke="none"
     id="g54">
    <path
       d="m 1258,1808 c -9,-7 -34,-48 -57,-90 -23,-43 -49,-91 -59,-107 -9,-16 -14,-32 -12,-34 6,-6 240,-37 274,-37 30,0 164,216 149,239 -7,11 -42,19 -114,28 -136,15 -162,15 -181,1 z"
       id="path2" />
    <path
       d="m 725,1728 c -81,-28 -86,-35 -29,-43 27,-3 68,-10 91,-15 74,-17 129,-12 183,17 27,15 48,29 45,31 -6,6 -173,31 -205,31 -14,0 -52,-9 -85,-21 z"
       id="path4" />
    <path
       d="m 1568,1733 c -33,-37 -118,-193 -117,-215 0,-31 71,-221 84,-225 13,-4 125,193 125,220 -1,36 -56,231 -67,234 -5,2 -17,-4 -25,-14 z"
       id="path6" />
    <path
       d="m 1017,1693 c -26,-14 -44,-30 -40,-34 5,-4 40,-12 78,-18 68,-9 71,-9 93,15 29,33 28,54 -2,54 -13,0 -36,2 -52,5 -20,4 -44,-3 -77,-22 z"
       id="path8" />
    <path
       d="m 512,1658 c -49,-18 -80,-34 -74,-40 5,-5 58,-17 118,-27 l 109,-18 87,31 c 48,17 85,33 82,36 -5,4 -74,18 -209,43 -20,3 -59,-5 -113,-25 z"
       id="path10" />
    <path
       d="m 822,1618 c -51,-17 -89,-35 -85,-39 5,-4 46,-13 93,-19 47,-6 105,-16 130,-22 41,-10 50,-8 96,15 30,15 54,35 57,47 3,11 2,20 -1,20 -12,1 -146,20 -172,25 -14,3 -66,-9 -118,-27 z"
       id="path12" />
    <path
       d="m 283,1573 c -144,-48 -140,-54 39,-74 l 115,-13 82,33 c 78,32 103,47 78,48 -13,0 -178,31 -200,37 -6,2 -58,-12 -114,-31 z"
       id="path14" />
    <path
       d="m 600,1535 c -47,-19 -89,-36 -95,-38 -26,-11 15,-21 142,-37 l 138,-17 88,35 c 49,19 85,38 80,42 -4,4 -57,15 -118,24 -60,9 -119,18 -130,21 -11,2 -58,-11 -105,-30 z"
       id="path16" />
    <path
       d="m 1089,1538 c -31,-25 -149,-210 -149,-234 0,-8 6,-17 13,-19 18,-7 185,-36 239,-42 45,-5 47,-4 73,33 55,81 125,199 125,211 0,19 -33,29 -140,43 -52,7 -106,14 -120,17 -14,2 -32,-2 -41,-9 z"
       id="path18" />
    <path
       d="m 145,1363 c 7,-149 13,-211 23,-217 15,-9 243,-38 257,-32 12,4 14,30 9,153 -3,81 -10,157 -16,169 -8,17 -27,23 -121,37 -62,9 -123,17 -135,17 h -23 z"
       id="path20" />
    <path
       d="m 1383,1438 c -11,-18 -42,-71 -68,-117 l -49,-85 40,-115 c 32,-91 44,-116 59,-116 24,0 145,196 145,234 -1,44 -73,225 -91,229 -10,2 -24,-10 -36,-30 z"
       id="path22" />
    <path
       d="m 468,1440 c -9,-27 8,-308 20,-322 8,-10 56,-21 143,-33 112,-16 132,-16 140,-4 11,15 2,319 -9,331 -8,7 -217,38 -262,38 -15,0 -30,-4 -32,-10 z"
       id="path24" />
    <path
       d="m 1607,1341 c -31,-55 -57,-110 -57,-122 0,-40 61,-219 75,-219 13,0 39,40 94,146 l 32,62 -30,113 c -18,70 -34,115 -43,117 -8,1 -36,-37 -71,-97 z"
       id="path26" />
    <path
       d="m 887,1219 c -54,-72 -127,-197 -127,-217 0,-11 8,-23 18,-26 48,-14 247,-47 270,-44 21,2 39,25 99,123 40,66 73,122 73,125 0,3 -4,11 -9,18 -7,12 -44,19 -257,49 -38,5 -43,3 -67,-28 z"
       id="path28" />
    <path
       d="m 1447,1060 c -37,-62 -67,-120 -67,-129 0,-10 9,-40 19,-67 10,-27 27,-70 36,-96 9,-27 22,-48 28,-48 19,0 127,203 126,236 -1,41 -52,207 -65,211 -6,2 -41,-46 -77,-107 z"
       id="path30" />
    <path
       d="m 1223,1133 c -47,-67 -133,-223 -133,-241 0,-21 76,-221 89,-235 18,-18 41,11 104,133 l 68,129 -42,108 c -53,135 -60,144 -86,106 z"
       id="path32" />
    <path
       d="m 1733,1148 c -6,-7 -32,-55 -58,-106 l -46,-92 28,-103 c 18,-64 33,-102 42,-102 17,0 111,182 111,215 0,37 -45,193 -57,197 -5,2 -15,-2 -20,-9 z"
       id="path34" />
    <path
       d="m 164,1086 c -4,-10 -4,-49 0,-89 3,-40 9,-105 12,-145 4,-40 11,-75 15,-78 13,-8 211,-44 242,-44 h 28 l -6,118 c -7,145 -14,200 -24,207 -5,2 -55,12 -112,20 -57,9 -113,18 -126,21 -16,4 -25,1 -29,-10 z"
       id="path36" />
    <path
       d="m 493,1024 c -12,-23 4,-293 17,-309 12,-15 252,-60 274,-52 11,5 16,19 16,49 v 43 l 17,-33 c 20,-42 46,-58 103,-67 25,-3 77,-13 117,-21 90,-18 100,-18 106,1 7,15 -76,223 -96,241 -14,13 -277,67 -304,62 -14,-2 -19,5 -21,33 l -3,36 -67,11 c -147,26 -149,26 -159,6 z"
       id="path38" />
    <path
       d="m 1541,762 c -34,-60 -61,-115 -61,-123 1,-25 56,-170 66,-171 10,-2 111,175 121,211 7,26 -42,191 -57,191 -4,0 -36,-49 -69,-108 z"
       id="path40" />
    <path
       d="m 1307,778 c -24,-46 -54,-102 -66,-125 l -21,-42 39,-98 c 21,-53 42,-98 47,-100 12,-4 124,210 126,239 2,23 -56,185 -72,201 -4,5 -28,-29 -53,-75 z"
       id="path42" />
    <path
       d="m 184,697 c -3,-8 1,-78 8,-157 l 13,-144 115,-27 c 154,-37 160,-37 160,4 -1,75 -20,271 -27,278 -6,6 -239,59 -260,59 -2,0 -6,-6 -9,-13 z"
       id="path44" />
    <path
       d="m 512,633 c -8,-18 3,-291 12,-301 3,-3 67,-19 141,-37 117,-28 137,-31 142,-18 9,23 -7,307 -17,317 -10,10 -128,36 -222,50 -39,6 -48,4 -56,-11 z"
       id="path46" />
    <path
       d="m 881,618 c 0,-7 19,-56 43,-108 l 42,-95 130,-27 c 154,-32 154,-32 154,-14 0,20 -69,178 -84,195 -13,12 -128,39 -238,55 -37,6 -48,4 -47,-6 z"
       id="path48" />
    <path
       d="m 1387,466 c -31,-57 -57,-112 -57,-123 0,-28 62,-174 73,-170 13,4 116,198 117,219 0,22 -61,178 -70,178 -4,0 -32,-47 -63,-104 z"
       id="path50" />
    <path
       d="m 990,366 c 0,-8 16,-50 36,-94 27,-60 43,-83 63,-91 54,-22 253,-63 262,-54 11,11 -62,182 -82,193 -15,8 -244,60 -266,60 -7,0 -13,-6 -13,-14 z"
       id="path52" />
  </g>
  <path
     d="m 298.48344,55.75028 c 0.46078,-5.064934 -0.76734,-9.029893 -3.68346,-11.894884 -2.91633,-2.916327 -7.82789,-4.37449 -14.73451,-4.37449 -4.39989,0 -8.08335,0.511681 -11.05106,1.534876 -2.91573,1.023254 -5.19236,2.430092 -6.82998,4.221054 -1.58563,1.790422 -2.58345,3.862318 -2.99246,6.215687 -0.46079,1.842277 -0.43524,3.530599 0.0786,5.064934 0.56296,1.484092 1.61157,2.839605 3.14652,4.06761 1.58564,1.228014 3.65752,2.327982 6.21563,3.299911 2.60949,0.971878 5.70464,1.841737 9.28601,2.608914 l 12.27847,2.762882 c 8.39027,1.841746 15.4249,4.271829 21.1036,7.290272 5.73058,2.967634 10.23255,6.4977 13.5065,10.590701 3.27454,4.09247 5.42315,8.671703 6.44641,13.736633 1.07455,5.06493 1.0999,10.59017 0.0786,16.57624 -1.7391,10.3341 -5.75543,19.08305 -12.04838,26.24527 -6.29236,7.16276 -14.50381,12.61128 -24.63369,16.34609 -10.12987,3.73481 -21.84587,5.60196 -35.14761,5.60196 -13.60917,0 -25.17122,-2.02059 -34.68742,-6.06226 -9.46473,-4.09302 -16.32015,-10.33463 -20.56658,-18.7254 -4.19512,-8.44154 -5.21839,-19.21054 -3.06978,-32.30805 h 40.51947 c -0.61406,4.80938 -0.10216,8.85107 1.53495,12.12505 1.63693,3.27451 4.27176,5.75592 7.90453,7.44423 3.63216,1.68832 8.16007,2.5322 13.58322,2.5322 4.60465,0 8.54364,-0.56238 11.81819,-1.68831 3.27445,-1.12536 5.858,-2.68564 7.75046,-4.68081 1.89317,-1.99573 3.04445,-4.27238 3.45395,-6.82997 0.40872,-2.3539 0,-4.45119 -1.22801,-6.29294 -1.22801,-1.84175 -3.45335,-3.50466 -6.67652,-4.98821 -3.22325,-1.48356 -7.64849,-2.83961 -13.27638,-4.06762 l -15.04145,-3.376618 c -13.35302,-3.069217 -23.43161,-8.13415 -30.23614,-15.194799 -6.80463,-7.060118 -9.20879,-16.729139 -7.21355,-29.008158 1.63694,-10.027219 5.75534,-18.776178 12.35522,-26.245268 6.65106,-7.520955 15.09263,-13.353059 25.32467,-17.49739 10.28324,-4.1950073 21.66647,-6.2926148 34.14979,-6.2926148 12.68799,0 23.3041,2.1232207 31.84774,6.3693378 8.59502,4.246432 14.75985,10.206584 18.49469,17.880963 3.78612,7.674391 4.80939,16.678356 3.06979,27.012977 z M 401.27866,163.80219 H 339.88519 L 365.97748,6.6357777 h 58.93754 c 16.16669,0 29.67318,3.2486338 40.51938,9.7463353 10.8463,6.49716 18.54549,15.783139 23.09885,27.856857 4.55384,12.074268 5.44909,26.45057 2.68612,43.128929 -2.66018,16.064611 -8.05788,29.801261 -16.19262,41.209901 -8.08334,11.40922 -18.41747,20.1317 -31.00337,26.1691 -12.53452,6.03686 -26.78279,9.05529 -42.74472,9.05529 z m -12.73937,-36.2217 h 15.50165 c 7.7765,0 14.70915,-1.35605 20.79735,-4.06761 6.13889,-2.76289 11.25522,-7.36698 15.34818,-13.81336 4.14384,-6.4977 7.1369,-15.373616 8.97858,-26.629379 1.73969,-10.641496 1.6883,-18.852906 -0.15327,-24.633682 -1.84178,-5.832644 -5.34642,-9.874325 -10.51354,-12.125583 -5.16749,-2.302054 -11.84401,-3.453347 -20.02953,-3.453347 h -15.80857 z m 109.83645,36.2217 26.0918,-157.1664123 h 42.67025 L 546.87805,129.42224 h 63.53992 l -5.83481,34.37995 z m 123.45789,0 26.08915,-157.1664123 h 68.14838 c 11.97215,0 21.76699,1.6116483 29.39012,4.8348353 7.67699,3.223188 13.10122,7.776491 16.2726,13.659919 3.21992,5.883428 4.17077,12.815498 2.83636,20.79675 -1.02111,5.730002 -3.22001,10.9743 -6.59664,15.732364 -3.32799,4.706739 -7.5474,8.697094 -12.66362,11.971607 -5.06228,3.222649 -10.71878,5.448518 -16.95877,6.676528 l -0.3085,1.534337 c 6.75325,0.204757 12.63669,1.893072 17.65034,5.064946 5.01356,3.121069 8.69819,7.469618 11.05372,13.046178 2.35011,5.525238 2.912,11.971598 1.68555,19.339128 -1.43168,8.59499 -4.93799,16.24344 -10.51344,22.94536 -5.57543,6.70245 -12.81491,11.9716 -21.71844,15.80908 -8.90352,3.83691 -19.03339,5.75538 -30.38961,5.75538 z m 48.49906,-34.07308 h 19.95183 c 7.06117,0 12.61508,-1.35605 16.65616,-4.06762 4.08982,-2.71157 6.52099,-6.67653 7.28812,-11.8949 0.61602,-3.68348 0.3085,-6.80402 -0.91863,-9.36216 -1.23175,-2.55813 -3.30098,-4.50251 -6.21838,-5.832633 -2.91741,-1.330124 -6.57492,-1.995172 -10.97265,-1.995172 h -20.56765 z m 9.82196,-59.551193 h 17.49905 c 3.68453,0 7.06115,-0.588315 10.12986,-1.765025 3.06872,-1.17723 5.60246,-2.890929 7.59603,-5.142188 1.99898,-2.250728 3.25233,-4.962294 3.76019,-8.134156 0.76732,-4.91149 -0.40479,-8.64631 -3.52793,-11.20444 -3.06862,-2.55813 -7.21246,-3.836919 -12.43135,-3.836919 h -18.11486 z m 211.84116,-0.675363 h 11.41565 l -10.31348,62.436706 c -1.07515,6.44639 -3.54415,12.20176 -7.41241,17.26669 -3.86817,5.03415 -8.79535,9.00937 -14.78148,11.92569 -5.98611,2.88553 -12.67452,4.32803 -20.076,4.32803 -7.39619,0 -13.59835,-1.4425 -18.60121,-4.32803 -5.00274,-2.91632 -8.59551,-6.89154 -10.77271,-11.92569 -2.18269,-5.06493 -2.73378,-10.8203 -1.65864,-17.26669 l 10.3136,-62.436706 h 11.42106 l -10.22174,61.515576 c -0.73981,4.60463 -0.38316,8.7025 1.05893,12.29413 1.4425,3.56085 3.86827,6.36966 7.27191,8.4259 3.44146,2.02596 7.78515,3.03895 13.03107,3.03895 5.25131,0 9.92992,-1.01299 14.04675,-3.03895 4.11134,-2.05624 7.45554,-4.86505 10.03801,-8.4259 2.6094,-3.59163 4.27885,-7.6895 5.01905,-12.29413 z m 45.64111,0 -15.65668,94.299596 h -11.42106 l 15.65668,-94.299596 z"
     fill="white"
     id="path269"
     style="fill:#000000;stroke-width:5.40261" />
</svg>
