<?xml version="1.0" encoding="UTF-8" standalone="no"?>
<svg
   width="128"
   height="26.882729"
   viewBox="0 0 128 26.882729"
   fill="none"
   version="1.1"
   id="svg273"
   sodipodi:docname="sdlb-logo.svg"
   inkscape:export-filename="sdlb-logo.svg"
   inkscape:export-xdpi="96"
   inkscape:export-ydpi="96"
   inkscape:version="1.2.2 (732a01da63, 2022-12-09)"
   xmlns:inkscape="http://www.inkscape.org/namespaces/inkscape"
   xmlns:sodipodi="http://sodipodi.sourceforge.net/DTD/sodipodi-0.dtd"
   xmlns="http://www.w3.org/2000/svg"
   xmlns:svg="http://www.w3.org/2000/svg">
  <defs
     id="defs277" />
  <sodipodi:namedview
     id="namedview275"
     pagecolor="#ffffff"
     bordercolor="#000000"
     borderopacity="0.25"
     inkscape:showpageshadow="2"
     inkscape:pageopacity="0.0"
     inkscape:pagecheckerboard="0"
     inkscape:deskcolor="#d1d1d1"
     showgrid="false"
     inkscape:zoom="4.6248606"
     inkscape:cx="68.434496"
     inkscape:cy="24.000724"
     inkscape:window-width="1920"
     inkscape:window-height="1017"
     inkscape:window-x="1912"
     inkscape:window-y="-8"
     inkscape:window-maximized="1"
     inkscape:current-layer="svg273" />
  <g
     id="g309"
     transform="matrix(0.69658114,0,0,0.69658114,-0.52796269,-3.5084545)">
    <path
       d="m 59.991193,18.719778 c 0.08968,-0.986762 -0.149567,-1.759225 -0.717626,-2.31739 -0.568164,-0.568165 -1.525034,-0.852247 -2.870609,-0.852247 -0.857194,0 -1.574819,0.09968 -2.152983,0.299028 -0.568059,0.199353 -1.011602,0.473436 -1.330629,0.822355 -0.308922,0.348814 -0.503327,0.752465 -0.583005,1.210954 -0.08978,0.358918 -0.08473,0.687839 0.01495,0.986762 0.10957,0.289134 0.313975,0.553218 0.613003,0.792462 0.308922,0.239244 0.712574,0.453542 1.210954,0.642895 0.50838,0.189353 1.111384,0.358813 1.809116,0.508275 l 2.392122,0.538272 c 1.634604,0.358813 3.005124,0.832248 4.111455,1.420305 1.116436,0.578164 1.993523,1.265898 2.631366,2.063307 0.637948,0.797303 1.056546,1.689441 1.255898,2.676203 0.209351,0.986762 0.214298,2.063201 0.01495,3.229422 -0.338815,2.01331 -1.121277,3.717803 -2.347283,5.113164 -1.225901,1.395465 -2.825665,2.456958 -4.799189,3.184583 -1.973524,0.727625 -4.256076,1.091385 -6.847549,1.091385 -2.651364,0 -4.903918,-0.393652 -6.757873,-1.181062 -1.843955,-0.797409 -3.179531,-2.013415 -4.006832,-3.648124 -0.817302,-1.644604 -1.016654,-3.742644 -0.598057,-6.294331 h 7.894096 c -0.119569,0.936976 -0.01989,1.724386 0.299028,2.362229 0.318922,0.637948 0.832248,1.121383 1.53998,1.450303 0.707627,0.328921 1.589766,0.493329 2.646312,0.493329 0.897085,0 1.664496,-0.109571 2.302444,-0.328921 0.637949,-0.219245 1.141276,-0.523221 1.509983,-0.911926 0.368812,-0.388811 0.59311,-0.832354 0.672893,-1.330629 0.07968,-0.458594 0,-0.867193 -0.239244,-1.226006 -0.239244,-0.358813 -0.672787,-0.682786 -1.300736,-0.971815 -0.627949,-0.28903 -1.49009,-0.553219 -2.586527,-0.792462 l -2.930394,-0.657842 c -2.601473,-0.597951 -4.564998,-1.584713 -5.890679,-2.960286 -1.325682,-1.375467 -1.794065,-3.259209 -1.40536,-5.651435 0.318922,-1.953526 1.121277,-3.658019 2.407068,-5.113164 1.295789,-1.465249 2.940393,-2.601473 4.93381,-3.408881 2.003416,-0.817281 4.22113,-1.2259426 6.653144,-1.2259426 2.471904,0 4.540157,0.4136507 6.204653,1.2408887 1.674496,0.8273009 2.875556,1.9884699 3.603182,3.4836119 0.737624,1.495142 0.936976,3.249315 0.598056,5.26273 z M 80.017987,39.7707 H 68.057169 L 73.140546,9.1511766 h 11.482331 c 3.149639,0 5.781004,0.6329065 7.894095,1.8988034 2.113092,1.265792 3.613075,3.074908 4.500161,5.427138 0.887191,2.352336 1.061598,5.153161 0.523326,8.402476 -0.518274,3.129746 -1.569872,5.80595 -3.154691,8.028611 -1.574819,2.222767 -3.58813,3.922103 -6.040141,5.098323 -2.442012,1.176115 -5.217892,1.764172 -8.32764,1.764172 z m -2.481903,-7.056795 h 3.02007 c 1.515035,0 2.865662,-0.264189 4.051777,-0.792462 1.196008,-0.538272 2.192769,-1.435252 2.990178,-2.69115 0.807303,-1.265897 1.390413,-2.995125 1.749226,-5.187999 0.33892,-2.0732 0.328921,-3.672965 -0.02989,-4.79919 -0.358813,-1.136328 -1.0416,-1.923738 -2.048255,-2.362334 -1.00676,-0.44849 -2.307497,-0.672788 -3.902209,-0.672788 H 80.287124 Z M 98.934662,39.7707 104.01793,9.1511766 h 8.31312 L 108.384,33.072718 h 12.37899 l -1.13675,6.697982 z m 24.052358,0 5.08275,-30.6195234 h 13.27682 c 2.33244,0 4.2407,0.313985 5.72585,0.9419344 1.49566,0.627949 2.55242,1.515034 3.17027,2.661257 0.62731,1.146223 0.81256,2.496745 0.55258,4.051671 -0.19893,1.116331 -0.62732,2.138037 -1.28516,3.065014 -0.64837,0.916979 -1.4704,1.694389 -2.46716,2.332337 -0.98624,0.627844 -2.08826,1.061493 -3.30395,1.300737 l -0.06,0.298923 c 1.31568,0.03989 2.4619,0.368812 3.43867,0.986762 0.97676,0.608056 1.6946,1.45525 2.15351,2.541688 0.45785,1.076439 0.56732,2.332337 0.32839,3.767694 -0.27893,1.674496 -0.96203,3.164585 -2.04826,4.470269 -1.08622,1.305788 -2.49663,2.332337 -4.23123,3.07996 -1.7346,0.747518 -3.70812,1.121277 -5.92057,1.121277 z m 9.44871,-6.638197 h 3.88705 c 1.37568,0 2.4577,-0.264189 3.245,-0.792462 0.79678,-0.528273 1.27043,-1.300737 1.41989,-2.317391 0.11999,-0.717626 0.06,-1.325577 -0.17894,-1.823957 -0.23998,-0.498381 -0.6431,-0.877192 -1.21148,-1.136329 -0.56837,-0.259137 -1.28094,-0.388705 -2.13772,-0.388705 h -4.00704 z m 1.91353,-11.6019 h 3.4092 c 0.71783,0 1.37567,-0.114622 1.97352,-0.343867 0.59785,-0.22935 1.09149,-0.563217 1.47988,-1.001813 0.38944,-0.438491 0.63363,-0.966764 0.73257,-1.584714 0.14946,-0.956869 -0.0789,-1.684495 -0.68731,-2.182875 -0.59785,-0.498381 -1.40515,-0.747518 -2.42191,-0.747518 h -3.52919 z m 41.27138,-0.131568 h 2.22403 l -2.00931,12.164064 c -0.20945,1.255898 -0.69047,2.377176 -1.44409,3.363938 -0.75362,0.980762 -1.71354,1.755225 -2.87977,2.32339 -1.16622,0.562165 -2.46927,0.843195 -3.91126,0.843195 -1.44093,0 -2.64926,-0.28103 -3.62391,-0.843195 -0.97466,-0.568165 -1.6746,-1.342628 -2.09878,-2.32339 -0.42523,-0.986762 -0.53259,-2.10804 -0.32313,-3.363938 l 2.00931,-12.164064 h 2.22508 l -1.99142,11.984605 c -0.14419,0.897085 -0.0747,1.695441 0.2063,2.395174 0.28103,0.693733 0.75363,1.240952 1.41673,1.641551 0.67047,0.394705 1.51672,0.592057 2.53874,0.592057 1.02308,0 1.93458,-0.197352 2.73662,-0.592057 0.80099,-0.400599 1.45251,-0.947818 1.95563,-1.641551 0.50838,-0.699733 0.83362,-1.498089 0.97782,-2.395174 z m 8.89191,0 -3.05027,18.371665 h -2.22509 l 3.05028,-18.371665 z"
       fill="white"
       id="path269"
       style="fill:#000000;stroke-width:1.05255" />
    <path
       fill-rule="evenodd"
       clip-rule="evenodd"
       d="m 39.169726,17.593449 c 0.752255,-2.807456 -0.913821,-5.693222 -3.721382,-6.445477 L 13.314773,5.2173066 C 10.507317,4.4650414 7.6215197,6.1311377 6.8692545,8.9386254 L 0.93856353,31.072249 C 0.18629936,33.879705 1.8523883,36.765471 4.659876,37.517725 l 22.133592,5.930677 c 2.807561,0.75236 5.693327,-0.913821 6.445582,-3.721277 z m -8.211333,1.097911 c 0,-2.906501 -2.35623,-5.262731 -5.262731,-5.262731 H 14.412473 c -2.9065,0 -5.2626984,2.35623 -5.2626984,5.262731 v 11.283189 c 0,2.9065 2.3561984,5.26273 5.2626984,5.26273 h 11.283189 c 2.906501,0 5.262731,-2.35623 5.262731,-5.26273 z"
       fill="white"
       id="path271"
       style="fill:#000000;stroke-width:1.05255" />
  </g>
</svg>
